# xmcd CD database file
#
# Track frame offsets:
#	150
#	16771
#	31939
#	54566
#	74832
#	93130
#	116246
#	141975
#	160109
#	175469
#	192231
#	216807
#
# Disc length: 3078 seconds
#
# Revision: 0
# Processed by: cddbd v1.5.2PL0 Copyright (c) Steve Scherf et al.
# Submitted via: CDex 1.51
#
DISCID=ab0c040c
DTITLE=Westside Andy and Glen Davis - Side By Side
DYEAR=2005
DGENRE=Jazz
TTITLE0=01 - See Saw Boogie
TTITLE1=02 - Tighten Up
TTITLE2=03 - Peaceful World
TTITLE3=04 - Put Yourself into my Shoes
TTITLE4=05 - Stuck in the Mud
TTITLE5=06 - Blues Avenue
TTITLE6=07 - Sneaky Stuff
TTITLE7=08 - Baby Let's Make Love Tonight
TTITLE8=09 - Who, What, When, Where and Why
TTITLE9=10 - Please Don't Do Me this Way
TTITLE10=11 - What's a Man Supposed to Do
TTITLE11=12 - Oh Bo
EXTD=YEAR: 2005
EXTT0=
EXTT1=
EXTT2=
EXTT3=
EXTT4=
EXTT5=
EXTT6=
EXTT7=
EXTT8=
EXTT9=
EXTT10=
EXTT11=
PLAYORDER=
